<svg xmlns="http://www.w3.org/2000/svg" width="180" height="64" viewBox="0 0 180 64"><path fill="#083f54" d="M180 64H0V0h180v64z"/><path d="M39.817 51.745l16.11 1.622V10.403l-16.123 1.66c-2.12.24-3.773 1.91-3.848 3.88V26.4c.077 2.18 1.82 3.89 3.972 3.89h8.54v-1.494h-8.54c-1.335 0-2.42-1.062-2.47-2.42V15.97c.046-1.203 1.148-2.263 2.506-2.42l14.45-1.303.008 39.288-.135-.016-14.307-1.27c-1.46-.18-2.47-1.13-2.52-2.39v-10.5c.05-1.41 1.11-2.46 2.47-2.46h8.54v-1.49h-8.54c-2.15 0-3.895 1.72-3.972 3.92v10.56c.08 2 1.666 3.58 3.863 3.84zm-6.944-3.933V37.32c-.075-2.18-1.82-3.89-3.972-3.89h-8.54v1.494h8.54c1.36 0 2.43 1.04 2.47 2.423v10.44c-.04 1.125-.83 2.306-2.51 2.42l-14.45 1.326V12.23l.14.01 14.31 1.33c1.42.164 2.48 1.167 2.52 2.387v10.398c-.04 1.403-1.11 2.457-2.46 2.457h-8.54v1.494h8.54c2.15 0 3.9-1.724 3.97-3.925V15.93c-.07-1.977-1.7-3.594-3.86-3.843l-16.11-1.695v43L28.99 51.7c2.21-.147 3.806-1.745 3.886-3.886zM70.16 14.515c-.278-.21-.605-.367-.973-.47-.373-.1-.764-.15-1.157-.15h-2.923v8.08h2.923c.398 0 .788-.05 1.157-.147.366-.096.693-.25.974-.455.28-.203.5-.464.67-.778.17-.31.25-.69.25-1.14V16.46c0-.447-.08-.835-.25-1.153-.16-.323-.39-.588-.66-.792zm-.515 4.94c0 .197-.05.373-.146.52-.1.14-.23.255-.38.343-.15.083-.32.143-.52.178-.19.034-.38.05-.58.05h-1.5V15.32h1.5c.2 0 .39.02.58.06.19.037.36.102.51.19.15.09.28.21.37.355.09.148.14.33.14.534v2.99zm9.81-5.573H74.08v8.092h5.374v-1.367H75.51v-1.995h3.624v-1.37H75.51v-1.98h3.944m8.916 5.3c.173-.333.26-.736.26-1.19v-5.48h-1.427v5.48c0 .225-.052.428-.154.6-.1.165-.23.306-.4.42-.16.11-.35.193-.56.245-.41.1-.83.098-1.23 0-.21-.053-.4-.135-.55-.246-.16-.11-.3-.25-.39-.41-.11-.17-.16-.37-.16-.6V13.9h-1.42v5.477c0 .457.08.858.26 1.192.17.33.4.62.7.85.28.22.62.39 1 .51.75.22 1.58.22 2.34 0 .38-.12.72-.29 1.01-.52.29-.23.52-.52.69-.85zm9.105-6.68h-6.25v1.428h2.412v6.664h1.427V15.31h2.41m7.026 6.185c.278-.194.508-.436.684-.713.176-.278.283-.605.32-.976.02-.463-.04-.85-.18-1.148-.147-.3-.343-.55-.583-.743-.25-.197-.53-.35-.86-.455-.33-.107-.69-.2-1.04-.27-.18-.04-.36-.078-.53-.113-.19-.038-.35-.093-.5-.167-.15-.08-.28-.18-.38-.3-.1-.133-.16-.308-.16-.52.01-.19.06-.344.15-.475s.21-.236.35-.314c.13-.07.28-.13.45-.16.17-.03.34-.05.51-.05.31 0 .59.07.86.21.22.12.42.3.59.53l1.17-.78c-.31-.43-.69-.75-1.11-.95-.46-.21-.97-.32-1.49-.32-.36 0-.72.05-1.06.15-.33.1-.64.24-.9.43-.25.19-.48.43-.65.72-.16.28-.26.61-.28.98 0 .43.07.8.21 1.1.15.3.33.54.56.73.23.2.5.35.81.45.31.11.62.18.95.23.22.04.43.07.63.11.22.04.41.11.57.19.17.09.3.2.41.33.11.15.16.33.16.55-.02.35-.19.62-.48.8-.26.16-.57.24-.9.24h-.05c-.35-.01-.7-.09-1.06-.26-.3-.14-.56-.34-.75-.6l-1.05.81c.32.46.72.8 1.17 1.03.84.43 1.75.47 2.61.23.346-.1.66-.25.95-.44zm4.55-7.047c-.288.216-.52.49-.697.818-.173.324-.26.705-.26 1.134v3.065c0 .438.088.825.264 1.145.177.326.418.6.71.814.293.217.636.386 1.013.5.38.112.768.17 1.153.17.532 0 1.06-.14 1.567-.415.46-.25.863-.63 1.194-1.13l-1.214-.68c-.177.28-.415.49-.704.63-.315.15-.637.22-.962.22h-.052c-.193 0-.387-.03-.572-.09-.185-.06-.35-.14-.502-.25-.148-.11-.27-.25-.355-.4-.088-.16-.136-.34-.136-.55V16.4c0-.202.05-.39.142-.55.09-.16.21-.296.36-.403.15-.104.31-.186.5-.247.18-.06.38-.093.59-.093h.04c.33 0 .66.077.97.227.29.138.52.347.7.622l1.12-.61c-.12-.232-.27-.44-.44-.618-.21-.215-.44-.395-.69-.536-.25-.146-.51-.252-.77-.316-.28-.068-.55-.103-.81-.103-.4 0-.79.058-1.18.172-.38.114-.72.283-1.01.503zm12.465 7.526h1.415v-8.08h-1.415v3.338h-3.43v-3.338h-1.42v8.08h1.42V18.53h3.43m10.01-4.648h-5.37v8.092h5.37v-1.367h-3.943v-1.995h3.623v-1.37h-3.623v-1.98h3.942m-61.5 13.166c-.22-.194-.482-.342-.778-.436-.304-.1-.632-.147-.98-.147h-3.16v8.096h3.22c.463 0 .866-.06 1.194-.17.33-.11.606-.26.82-.44.217-.17.384-.38.5-.62.118-.24.197-.49.233-.76.03-.2.038-.41.02-.61-.012-.2-.06-.4-.134-.59-.08-.18-.2-.37-.34-.53-.15-.16-.35-.31-.59-.42l-.29-.14.27-.15c.12-.07.23-.15.31-.26.08-.1.16-.22.23-.35.06-.11.1-.24.12-.36.02-.13.04-.24.04-.35 0-.37-.07-.71-.19-1-.13-.29-.3-.53-.52-.72zm-3.5.8h1.744c.38 0 .666.102.852.302.186.198.272.424.26.67-.016.237-.12.454-.31.65-.195.196-.464.3-.802.3h-1.745v-1.922zm2.98 4.767c-.105.168-.266.31-.477.416-.21.11-.466.16-.76.16h-1.745v-2.25h1.745c.303 0 .56.06.765.17.21.11.367.25.473.41.107.17.164.36.164.56 0 .2-.06.39-.17.56zm4.726-6.137h1.418v8.082H74.23zm9.35 7.912c.327-.11.604-.26.818-.44.217-.177.383-.387.5-.625.116-.237.196-.496.233-.762.03-.2.04-.408.03-.617-.01-.205-.06-.403-.13-.594-.08-.186-.19-.368-.34-.533-.14-.17-.34-.31-.58-.43l-.28-.14.28-.16c.13-.07.23-.16.32-.26.09-.11.17-.23.23-.35.06-.12.1-.24.13-.37.02-.13.04-.25.04-.36 0-.38-.06-.72-.19-1.01-.12-.29-.3-.53-.52-.73-.22-.2-.48-.34-.78-.44-.3-.1-.63-.15-.98-.15H79.2v8.1h3.22c.464 0 .866-.06 1.197-.17zm-3-6.542h1.743c.38 0 .666.102.854.302.184.2.27.425.255.67-.01.237-.115.454-.306.65-.194.196-.463.3-.803.3H80.58v-1.922zm0 5.343v-2.25h1.743c.306 0 .562.06.767.17.21.11.367.25.474.41.107.17.162.36.162.56 0 .2-.056.39-.163.56-.106.17-.27.31-.48.42-.208.11-.464.16-.76.16H80.58zm13.08-6.72h-5.37v8.1h5.37v-1.37h-3.943v-2h3.624v-1.37h-3.62v-1.98h3.95m3.27-1.37v8.08h5.05v-1.43h-3.63v-6.65m-32.5 14.51c-.29.22-.52.49-.69.82-.17.32-.25.7-.25 1.13v3.07c0 .45.09.84.27 1.17.18.33.41.61.7.83.29.22.63.38 1.01.49.76.22 1.58.22 2.33-.01.37-.11.71-.28 1-.51.29-.22.53-.5.7-.83.17-.32.26-.7.26-1.14v-1.93h-3.3v1.37h1.91v.57c0 .23-.06.42-.16.59-.11.16-.25.29-.41.4-.16.1-.35.17-.55.23-.39.1-.84.1-1.23 0-.2-.05-.39-.13-.54-.23-.16-.1-.3-.24-.4-.4-.1-.16-.16-.36-.16-.58v-3.1c0-.22.05-.41.15-.58.1-.16.23-.3.39-.42.16-.11.34-.19.53-.24.19-.05.4-.08.6-.08.35 0 .69.09 1.02.25.29.14.51.35.66.62l1.12-.59c-.13-.25-.29-.47-.47-.65-.21-.21-.43-.38-.68-.51s-.5-.23-.77-.28c-.27-.06-.55-.09-.82-.09-.39 0-.78.058-1.16.166-.37.11-.7.28-1 .5zm13.81-.55H74.3v8.09h5.37v-1.37h-3.94v-2h3.622v-1.36h-3.63v-1.99h3.944m4.068 6.46c.847.44 1.75.48 2.608.23.35-.1.67-.25.95-.44.275-.19.506-.43.683-.71.177-.27.284-.6.32-.97.02-.46-.037-.85-.18-1.15-.143-.3-.34-.55-.582-.74-.25-.19-.54-.35-.86-.45-.33-.1-.683-.19-1.05-.26l-.524-.11c-.19-.04-.36-.09-.51-.17-.15-.07-.28-.18-.38-.3-.11-.13-.16-.31-.16-.52.01-.18.06-.34.14-.47.09-.13.2-.23.34-.31.13-.07.28-.13.45-.16.16-.03.33-.05.51-.05.3 0 .58.07.85.21.21.12.42.3.59.53l1.16-.78c-.32-.43-.7-.75-1.12-.94-.47-.22-.97-.33-1.49-.33-.36 0-.72.05-1.06.15-.34.1-.64.25-.9.44s-.48.43-.65.71c-.17.28-.27.61-.29.98-.01.44.06.8.2 1.09.14.3.33.54.56.74s.5.34.81.45c.3.11.62.19.95.23.23.04.44.07.63.11.21.05.4.11.56.19.16.09.3.2.4.33.1.15.16.34.15.55-.02.36-.18.63-.48.8-.26.16-.57.24-.91.24h-.05c-.35-.01-.71-.092-1.06-.26-.3-.14-.56-.34-.75-.593l-1.06.81c.32.46.72.8 1.17 1.03zm13.03-7.83h-5.38v8.09h5.377v-1.37h-3.94v-2h3.63v-1.36h-3.63v-1.99h3.95m3.27-1.37v8.09h5.05v-1.43h-3.63v-6.66m6.59 0v8.09h5.06v-1.43h-3.64v-6.66m7.4 7.83c.85.44 1.75.48 2.61.23.35-.1.67-.25.95-.44.28-.19.51-.43.69-.71.17-.27.28-.6.31-.97.02-.46-.03-.85-.18-1.15-.14-.3-.34-.55-.58-.74-.25-.19-.54-.35-.86-.45-.33-.1-.68-.19-1.05-.26l-.52-.11c-.2-.04-.36-.09-.51-.17-.15-.07-.28-.18-.38-.3-.1-.13-.16-.31-.16-.52.02-.18.06-.34.15-.47.09-.13.2-.23.34-.31.13-.07.28-.13.45-.16.17-.03.34-.05.51-.05.31 0 .59.07.85.21.22.12.42.3.6.53l1.17-.78c-.32-.43-.69-.75-1.12-.94-.46-.22-.97-.33-1.49-.33-.36 0-.72.05-1.06.15-.34.1-.64.25-.9.44s-.48.43-.65.71c-.17.28-.26.61-.29.98 0 .43.06.8.21 1.09.15.3.34.54.57.73.23.19.5.34.8.45.3.11.62.19.95.23.23.04.44.07.63.11.22.04.41.1.57.19.16.08.3.19.4.33.11.15.16.33.16.55-.02.35-.18.62-.48.79-.26.16-.57.24-.9.24h-.05c-.35-.01-.71-.09-1.06-.26-.3-.14-.56-.34-.75-.59l-1.06.81c.33.46.72.8 1.176 1.03zm8.4-7.26c-.29.22-.52.5-.7.82-.17.33-.26.71-.26 1.14v3.06c0 .44.09.83.27 1.15.18.33.42.6.71.82.3.22.64.39 1.02.5.38.12.77.18 1.16.18.53 0 1.06-.14 1.57-.41.46-.25.87-.62 1.2-1.11l-1.22-.68c-.17.28-.41.5-.7.64-.31.15-.64.23-.96.23h-.05c-.19 0-.39-.03-.57-.08-.18-.05-.35-.13-.49-.24-.15-.11-.27-.24-.36-.39-.09-.16-.13-.34-.13-.55V44.4c0-.204.05-.39.14-.55.09-.16.22-.294.37-.4.15-.104.32-.19.51-.246.18-.06.39-.094.59-.094h.05c.33 0 .65.08.97.23.29.14.52.35.7.63l1.12-.61c-.12-.23-.27-.44-.44-.62-.21-.22-.44-.4-.68-.54-.26-.14-.51-.25-.78-.31-.27-.07-.54-.1-.804-.1-.4 0-.8.06-1.18.17-.38.11-.72.28-1 .5zM138 49.91h1.42v-8.09H138v3.34h-3.43v-3.34h-1.42v8.084h1.42V46.46H138m9.915 3.444h1.484l-2.9-8.084h-1.45l-2.83 8.084h1.52l.7-1.923h2.73l.73 1.93zm-1.08-3.2h-2.05l.936-3.36h.12l1 3.36zm10.214-1.332h-3.45V43.19h3.93v-1.37h-5.36v8.084h1.43V46.77h3.44m9.29-4.958h-6.26v1.427h2.41v6.66h1.43v-6.66h2.41" fill="#FFF"/></svg>
