<?xml version="1.0" encoding="UTF-8"?> <svg xmlns="http://www.w3.org/2000/svg" width="189" height="60" viewBox="0 0 189 60" fill="none"><g clip-path="url(#clip0_197_539)"><path d="M22.1243 2.02783C21.0018 2.44425 19.9155 2.91498 18.8292 3.45813L27.5196 21.2554L22.1243 2.02783Z" fill="#CBAA76"></path><path d="M37.7308 0.271575C36.554 0.10863 35.3591 0.018105 34.2003 0L34.5987 20.0785L37.7308 0.271575Z" fill="#CBAA76"></path><path d="M47.8335 3.34941C46.7653 2.82436 45.6609 2.35363 44.5383 1.95532L39.2517 21.2191L47.8335 3.34941Z" fill="#CBAA76"></path><path d="M60.181 13.6694C59.4387 12.6917 58.6602 11.7502 57.8274 10.845L45.1177 25.5824L60.181 13.6694Z" fill="#CBAA76"></path><path d="M52.4321 6.1013C51.4544 5.41331 50.4224 4.76153 49.3723 4.16406L41.4061 22.3415L52.4321 6.1013Z" fill="#CBAA76"></path><path d="M56.5781 9.57764C55.7091 8.72671 54.7857 7.91198 53.8262 7.16968L43.3615 23.8263L56.5781 9.57764Z" fill="#CBAA76"></path><path d="M32.4623 0C31.2673 0.03621 30.0724 0.126733 28.9137 0.289679L32.1726 20.0785L32.4623 0Z" fill="#CBAA76"></path><path d="M17.3084 4.29077C16.2402 4.88824 15.2082 5.55812 14.2668 6.24611L25.3832 22.4139L17.3084 4.29077Z" fill="#CBAA76"></path><path d="M12.8545 7.31445C11.895 8.07486 10.9897 8.88959 10.1207 9.74053L23.4097 23.8805L12.8545 7.31445Z" fill="#CBAA76"></path><path d="M27.2299 0.579346C26.035 0.814711 24.8763 1.10439 23.7719 1.44839L29.819 20.4586L27.2299 0.579346Z" fill="#CBAA76"></path><path d="M63.1684 18.3041C62.5528 17.1816 61.9191 16.1134 61.2492 15.1357L46.5842 27.6282L63.1684 18.3041Z" fill="#CBAA76"></path><path d="M65.4677 23.3736C65.0512 22.2149 64.5624 21.0561 64.0193 19.9155L47.7429 29.8552L65.4677 23.3736Z" fill="#CBAA76"></path><path d="M8.88954 11.0259C8.05671 11.913 7.27819 12.8726 6.53589 13.8684L21.6898 25.6728L8.88954 11.0259Z" fill="#CBAA76"></path><path d="M42.8907 1.39415C41.732 1.05015 40.5733 0.760473 39.4327 0.543213L36.9704 20.4587L42.8907 1.39415Z" fill="#CBAA76"></path><path d="M2.76999 20.1509C2.22684 21.2915 1.738 22.4502 1.33969 23.6089L19.1188 29.9819L2.76999 20.1509Z" fill="#CBAA76"></path><path d="M5.50391 15.335C4.81592 16.3669 4.16414 17.4351 3.58478 18.5214L20.2414 27.7188L5.50391 15.335Z" fill="#CBAA76"></path><path d="M0.434524 27.0128C13.7779 35.0695 28.8775 31.6296 32.5709 38.3103V60.0001C32.4623 59.8915 32.3355 59.7829 32.1907 59.6742C31.1044 58.7328 29.2758 57.3568 26.2342 55.9084C22.414 53.9349 7.6041 52.3236 4.49004 49.4992C3.965 48.0146 0.21726 26.9585 0 26.7412C0.126735 26.8498 0.325894 26.9585 0.434524 27.0128Z" fill="#CBAA76"></path><path d="M66.2643 27.0128C52.921 35.0695 37.8214 31.6296 34.128 38.3103V60.0001C34.2366 59.8915 34.3633 59.7829 34.5082 59.6742C35.5945 58.7328 37.4231 57.3568 40.4647 55.9084C44.2849 53.9349 59.0948 52.3236 62.2088 49.4992C62.7339 48.0146 66.4816 26.9585 66.6989 26.7412C66.5721 26.8498 66.373 26.9585 66.2643 27.0128Z" fill="#CBAA76"></path><path d="M177.557 49.1602C177.557 48.3282 177.675 47.5602 177.909 46.8562C178.144 46.1415 178.491 45.5282 178.949 45.0162C179.408 44.4935 179.973 44.0882 180.645 43.8002C181.317 43.5122 182.091 43.3682 182.965 43.3682C183.84 43.3682 184.613 43.5122 185.285 43.8002C185.957 44.0882 186.517 44.4935 186.965 45.0162C187.424 45.5282 187.771 46.1415 188.005 46.8562C188.24 47.5602 188.357 48.3282 188.357 49.1602C188.357 49.9922 188.24 50.7655 188.005 51.4802C187.771 52.1842 187.424 52.7975 186.965 53.3202C186.517 53.8322 185.957 54.2322 185.285 54.5202C184.613 54.8082 183.84 54.9522 182.965 54.9522C182.091 54.9522 181.317 54.8082 180.645 54.5202C179.973 54.2322 179.408 53.8322 178.949 53.3202C178.491 52.7975 178.144 52.1842 177.909 51.4802C177.675 50.7655 177.557 49.9922 177.557 49.1602ZM180.277 49.1602C180.277 49.8428 180.331 50.4775 180.437 51.0642C180.544 51.6402 180.709 52.1415 180.933 52.5682C181.168 52.9842 181.461 53.3148 181.813 53.5602C182.176 53.7948 182.608 53.9122 183.109 53.9122C183.568 53.9122 183.957 53.7948 184.277 53.5602C184.597 53.3148 184.859 52.9842 185.061 52.5682C185.264 52.1415 185.408 51.6402 185.493 51.0642C185.589 50.4775 185.637 49.8428 185.637 49.1602C185.637 48.4775 185.584 47.8482 185.477 47.2722C185.381 46.6855 185.221 46.1842 184.997 45.7682C184.784 45.3415 184.496 45.0108 184.133 44.7762C183.781 44.5308 183.349 44.4082 182.837 44.4082C182.347 44.4082 181.936 44.5308 181.605 44.7762C181.275 45.0108 181.008 45.3415 180.805 45.7682C180.613 46.1842 180.475 46.6855 180.389 47.2722C180.315 47.8482 180.277 48.4775 180.277 49.1602Z" fill="#CBAA76"></path><path d="M166.863 54.7601V54.1521C167.065 54.0348 167.279 53.9334 167.503 53.8481C167.737 53.7628 167.961 53.7094 168.175 53.6881V44.6321C167.961 44.5894 167.737 44.5308 167.503 44.4561C167.268 44.3708 167.055 44.2748 166.863 44.1681V43.5601H169.439C169.844 43.5601 170.228 43.5441 170.591 43.5121C170.953 43.4801 171.369 43.4641 171.839 43.4641C172.351 43.4641 172.847 43.5014 173.327 43.5761C173.807 43.6508 174.233 43.7841 174.607 43.9761C174.98 44.1681 175.279 44.4401 175.503 44.7921C175.727 45.1334 175.839 45.5761 175.839 46.1201C175.839 46.4614 175.775 46.7814 175.647 47.0801C175.529 47.3681 175.359 47.6241 175.135 47.8481C174.921 48.0721 174.665 48.2588 174.367 48.4081C174.079 48.5574 173.764 48.6641 173.423 48.7281V48.7921C173.764 48.8348 174.105 48.9148 174.447 49.0321C174.799 49.1494 175.113 49.3201 175.391 49.5441C175.668 49.7681 175.892 50.0508 176.063 50.3921C176.244 50.7228 176.335 51.1174 176.335 51.5761C176.335 52.1521 176.207 52.6481 175.951 53.0641C175.695 53.4801 175.348 53.8214 174.911 54.0881C174.484 54.3548 173.993 54.5521 173.439 54.6801C172.884 54.7974 172.308 54.8561 171.711 54.8561C171.487 54.8561 171.241 54.8508 170.975 54.8401C170.708 54.8294 170.441 54.8188 170.175 54.8081C169.908 54.7974 169.647 54.7868 169.391 54.7761C169.145 54.7654 168.937 54.7601 168.767 54.7601H166.863ZM171.695 53.8161C172.367 53.8161 172.895 53.6188 173.279 53.2241C173.663 52.8188 173.855 52.2854 173.855 51.6241C173.855 51.2188 173.791 50.8881 173.663 50.6321C173.535 50.3654 173.359 50.1574 173.135 50.0081C172.911 49.8481 172.644 49.7414 172.335 49.6881C172.025 49.6241 171.689 49.5921 171.327 49.5921H170.479V53.7041C170.628 53.7361 170.783 53.7628 170.943 53.7841C171.113 53.8054 171.364 53.8161 171.695 53.8161ZM170.991 48.5521C171.172 48.5521 171.353 48.5468 171.535 48.5361C171.716 48.5148 171.887 48.4934 172.047 48.4721C172.463 48.3014 172.799 48.0401 173.055 47.6881C173.311 47.3254 173.439 46.9148 173.439 46.4561C173.439 45.7841 173.263 45.2934 172.911 44.9841C172.559 44.6641 172.105 44.5041 171.551 44.5041C171.316 44.5041 171.113 44.5094 170.943 44.5201C170.772 44.5308 170.617 44.5468 170.479 44.5681V48.5521H170.991Z" fill="#CBAA76"></path><path d="M163.951 54.7601H158.447V54.1521C158.66 54.0667 158.9 53.9814 159.167 53.8961C159.444 53.8001 159.721 53.7307 159.999 53.6881V44.6001H158.143L157.119 47.3361H156.463C156.42 47.1227 156.377 46.8507 156.335 46.5201C156.292 46.1894 156.255 45.8481 156.223 45.4961C156.191 45.1441 156.164 44.7974 156.143 44.4561C156.121 44.1041 156.111 43.8054 156.111 43.5601H166.303C166.303 43.8161 166.292 44.1147 166.271 44.4561C166.249 44.7974 166.223 45.1441 166.191 45.4961C166.159 45.8481 166.121 46.1894 166.079 46.5201C166.036 46.8401 165.993 47.1121 165.951 47.3361H165.279L164.255 44.6001H162.399V53.6881C162.676 53.7414 162.948 53.8054 163.215 53.8801C163.492 53.9547 163.737 54.0454 163.951 54.1521V54.7601Z" fill="#CBAA76"></path><path d="M154.511 51.4002H155.167C155.209 51.5708 155.247 51.7788 155.279 52.0242C155.321 52.2588 155.353 52.5148 155.375 52.7922C155.407 53.0588 155.428 53.3255 155.439 53.5922C155.449 53.8588 155.455 54.0988 155.455 54.3122C155.081 54.5468 154.612 54.7122 154.047 54.8082C153.492 54.9042 152.921 54.9522 152.335 54.9522C151.449 54.9522 150.644 54.8455 149.919 54.6322C149.204 54.4082 148.591 54.0615 148.079 53.5922C147.577 53.1122 147.188 52.5095 146.911 51.7842C146.633 51.0482 146.495 50.1682 146.495 49.1442C146.495 48.1308 146.644 47.2615 146.943 46.5362C147.252 45.8002 147.663 45.1975 148.175 44.7282C148.687 44.2588 149.279 43.9175 149.951 43.7042C150.633 43.4802 151.348 43.3682 152.095 43.3682C152.799 43.3682 153.433 43.4215 153.999 43.5282C154.575 43.6242 155.044 43.7575 155.407 43.9282C155.407 44.0988 155.396 44.3175 155.375 44.5842C155.364 44.8508 155.337 45.1335 155.295 45.4322C155.263 45.7202 155.22 46.0082 155.167 46.2962C155.124 46.5735 155.081 46.8082 155.039 47.0002H154.367L153.487 44.5842C153.391 44.5308 153.236 44.4882 153.023 44.4562C152.809 44.4242 152.591 44.4082 152.367 44.4082C151.929 44.4082 151.519 44.4988 151.135 44.6802C150.751 44.8508 150.409 45.1282 150.111 45.5122C149.812 45.8962 149.577 46.3922 149.407 47.0002C149.236 47.5975 149.151 48.3175 149.151 49.1602C149.151 50.6855 149.455 51.8588 150.063 52.6802C150.671 53.5015 151.497 53.9122 152.543 53.9122C152.841 53.9122 153.092 53.8908 153.295 53.8482C153.508 53.7948 153.652 53.7255 153.727 53.6402L154.511 51.4002Z" fill="#CBAA76"></path><path d="M138.538 54.7601H133.722V54.1521C133.925 54.0454 134.138 53.9494 134.362 53.8641C134.586 53.7787 134.81 53.7201 135.034 53.6881V44.6321C134.821 44.5787 134.597 44.5201 134.362 44.4561C134.127 44.3814 133.914 44.2854 133.722 44.1681V43.5601H138.538V44.1681C138.378 44.2641 138.197 44.3547 137.994 44.4401C137.791 44.5254 137.573 44.5894 137.338 44.6321V50.7121L137.178 51.9601L137.962 50.6481L141.994 45.0161V44.6321C141.493 44.5147 141.071 44.3601 140.73 44.1681V43.5601H145.546V44.1681C145.365 44.2854 145.157 44.3814 144.922 44.4561C144.698 44.5201 144.469 44.5787 144.234 44.6321V53.6881C144.479 53.7307 144.709 53.7947 144.922 53.8801C145.146 53.9547 145.354 54.0454 145.546 54.1521V54.7601H140.73V54.1521C140.879 54.0774 141.055 53.9974 141.258 53.9121C141.471 53.8161 141.695 53.7414 141.93 53.6881V47.6241L142.09 46.3601L141.37 47.6241L137.274 53.3361V53.6881C137.519 53.7414 137.749 53.8107 137.962 53.8961C138.175 53.9814 138.367 54.0667 138.538 54.1521V54.7601Z" fill="#CBAA76"></path><path d="M127.2 53.6881C127.488 53.7308 127.77 53.7948 128.048 53.8801C128.336 53.9548 128.592 54.0455 128.816 54.1521V54.7601H123.488V54.1521C123.69 54.0348 123.904 53.9388 124.128 53.8641C124.362 53.7895 124.586 53.7308 124.8 53.6881V44.6321C124.554 44.5895 124.32 44.5308 124.096 44.4561C123.872 44.3708 123.669 44.2748 123.488 44.1681V43.5601H125.504C125.93 43.5601 126.416 43.5388 126.96 43.4961C127.514 43.4535 128.021 43.4321 128.48 43.4321C129.045 43.4321 129.594 43.4908 130.128 43.6081C130.672 43.7148 131.152 43.9015 131.568 44.1681C131.994 44.4348 132.336 44.7921 132.592 45.2401C132.848 45.6775 132.976 46.2268 132.976 46.8881C132.976 47.5175 132.848 48.0615 132.592 48.5201C132.346 48.9788 132.016 49.3575 131.6 49.6561C131.184 49.9548 130.704 50.1788 130.16 50.3281C129.616 50.4668 129.056 50.5361 128.48 50.5361C128.426 50.5361 128.341 50.5361 128.224 50.5361C128.106 50.5361 127.978 50.5361 127.84 50.5361C127.712 50.5255 127.584 50.5201 127.456 50.5201C127.338 50.5095 127.253 50.4988 127.2 50.4881V53.6881ZM128.064 44.4721C127.85 44.4721 127.68 44.4828 127.552 44.5041C127.434 44.5148 127.317 44.5361 127.2 44.5681V49.4321C127.296 49.4641 127.44 49.4855 127.632 49.4961C127.824 49.4961 127.978 49.4961 128.096 49.4961C128.384 49.4961 128.661 49.4481 128.928 49.3521C129.194 49.2561 129.429 49.1068 129.632 48.9041C129.845 48.7015 130.016 48.4401 130.144 48.1201C130.272 47.8001 130.336 47.4161 130.336 46.9681C130.336 46.1148 130.128 45.4855 129.712 45.0801C129.296 44.6748 128.746 44.4721 128.064 44.4721Z" fill="#CBAA76"></path><path d="M115.463 54.7602H111.511V54.1522C111.682 54.0455 111.863 53.9548 112.055 53.8802C112.258 53.7948 112.455 53.7308 112.647 53.6882L116.775 43.3682H117.959L121.975 53.6882C122.189 53.7308 122.402 53.7948 122.615 53.8802C122.829 53.9548 123.015 54.0455 123.175 54.1522V54.7602H118.167V54.1522C118.37 54.0562 118.589 53.9655 118.823 53.8802C119.058 53.7948 119.282 53.7308 119.495 53.6882L118.567 51.1442H115.015L114.071 53.6882C114.562 53.7522 115.026 53.9068 115.463 54.1522V54.7602ZM115.399 50.1042H118.231L117.191 47.0482L116.887 45.6722H116.855L116.503 47.0802L115.399 50.1042Z" fill="#CBAA76"></path><path d="M101.441 54.7601V54.1521C101.643 54.0348 101.857 53.9334 102.081 53.8481C102.315 53.7628 102.539 53.7094 102.753 53.6881V44.6321C102.539 44.5894 102.315 44.5308 102.081 44.4561C101.846 44.3708 101.633 44.2748 101.441 44.1681V43.5601H104.017C104.422 43.5601 104.806 43.5441 105.169 43.5121C105.531 43.4801 105.947 43.4641 106.417 43.4641C106.929 43.4641 107.425 43.5014 107.905 43.5761C108.385 43.6508 108.811 43.7841 109.185 43.9761C109.558 44.1681 109.857 44.4401 110.081 44.7921C110.305 45.1334 110.417 45.5761 110.417 46.1201C110.417 46.4614 110.353 46.7814 110.225 47.0801C110.107 47.3681 109.937 47.6241 109.713 47.8481C109.499 48.0721 109.243 48.2588 108.945 48.4081C108.657 48.5574 108.342 48.6641 108.001 48.7281V48.7921C108.342 48.8348 108.683 48.9148 109.025 49.0321C109.377 49.1494 109.691 49.3201 109.969 49.5441C110.246 49.7681 110.47 50.0508 110.641 50.3921C110.822 50.7228 110.913 51.1174 110.913 51.5761C110.913 52.1521 110.785 52.6481 110.529 53.0641C110.273 53.4801 109.926 53.8214 109.489 54.0881C109.062 54.3548 108.571 54.5521 108.017 54.6801C107.462 54.7974 106.886 54.8561 106.289 54.8561C106.065 54.8561 105.819 54.8508 105.553 54.8401C105.286 54.8294 105.019 54.8188 104.753 54.8081C104.486 54.7974 104.225 54.7868 103.969 54.7761C103.723 54.7654 103.515 54.7601 103.345 54.7601H101.441ZM106.273 53.8161C106.945 53.8161 107.473 53.6188 107.857 53.2241C108.241 52.8188 108.433 52.2854 108.433 51.6241C108.433 51.2188 108.369 50.8881 108.241 50.6321C108.113 50.3654 107.937 50.1574 107.713 50.0081C107.489 49.8481 107.222 49.7414 106.913 49.6881C106.603 49.6241 106.267 49.5921 105.905 49.5921H105.057V53.7041C105.206 53.7361 105.361 53.7628 105.521 53.7841C105.691 53.8054 105.942 53.8161 106.273 53.8161ZM105.569 48.5521C105.75 48.5521 105.931 48.5468 106.113 48.5361C106.294 48.5148 106.465 48.4934 106.625 48.4721C107.041 48.3014 107.377 48.0401 107.633 47.6881C107.889 47.3254 108.017 46.9148 108.017 46.4561C108.017 45.7841 107.841 45.2934 107.489 44.9841C107.137 44.6641 106.683 44.5041 106.129 44.5041C105.894 44.5041 105.691 44.5094 105.521 44.5201C105.35 44.5308 105.195 44.5468 105.057 44.5681V48.5521H105.569Z" fill="#CBAA76"></path><path d="M89.6822 49.1602C89.6822 48.3282 89.7996 47.5602 90.0342 46.8562C90.2689 46.1415 90.6156 45.5282 91.0742 45.0162C91.5329 44.4935 92.0982 44.0882 92.7702 43.8002C93.4422 43.5122 94.2156 43.3682 95.0902 43.3682C95.9649 43.3682 96.7382 43.5122 97.4102 43.8002C98.0822 44.0882 98.6422 44.4935 99.0902 45.0162C99.5489 45.5282 99.8956 46.1415 100.13 46.8562C100.365 47.5602 100.482 48.3282 100.482 49.1602C100.482 49.9922 100.365 50.7655 100.13 51.4802C99.8956 52.1842 99.5489 52.7975 99.0902 53.3202C98.6422 53.8322 98.0822 54.2322 97.4102 54.5202C96.7382 54.8082 95.9649 54.9522 95.0902 54.9522C94.2156 54.9522 93.4422 54.8082 92.7702 54.5202C92.0982 54.2322 91.5329 53.8322 91.0742 53.3202C90.6156 52.7975 90.2689 52.1842 90.0342 51.4802C89.7996 50.7655 89.6822 49.9922 89.6822 49.1602ZM92.4022 49.1602C92.4022 49.8428 92.4556 50.4775 92.5622 51.0642C92.6689 51.6402 92.8342 52.1415 93.0582 52.5682C93.2929 52.9842 93.5862 53.3148 93.9382 53.5602C94.3009 53.7948 94.7329 53.9122 95.2342 53.9122C95.6929 53.9122 96.0822 53.7948 96.4022 53.5602C96.7222 53.3148 96.9836 52.9842 97.1862 52.5682C97.3889 52.1415 97.5329 51.6402 97.6182 51.0642C97.7142 50.4775 97.7622 49.8428 97.7622 49.1602C97.7622 48.4775 97.7089 47.8482 97.6022 47.2722C97.5062 46.6855 97.3462 46.1842 97.1222 45.7682C96.9089 45.3415 96.6209 45.0108 96.2582 44.7762C95.9062 44.5308 95.4742 44.4082 94.9622 44.4082C94.4716 44.4082 94.0609 44.5308 93.7302 44.7762C93.3996 45.0108 93.1329 45.3415 92.9302 45.7682C92.7382 46.1842 92.5996 46.6855 92.5142 47.2722C92.4396 47.8482 92.4022 48.4775 92.4022 49.1602Z" fill="#CBAA76"></path><path d="M86.7788 54.7601H81.2748V54.1521C81.4882 54.0667 81.7282 53.9814 81.9948 53.8961C82.2722 53.8001 82.5495 53.7307 82.8268 53.6881V44.6001H80.9708L79.9468 47.3361H79.2908C79.2482 47.1227 79.2055 46.8507 79.1628 46.5201C79.1202 46.1894 79.0828 45.8481 79.0508 45.4961C79.0188 45.1441 78.9922 44.7974 78.9708 44.4561C78.9495 44.1041 78.9388 43.8054 78.9388 43.5601H89.1308C89.1308 43.8161 89.1202 44.1147 89.0988 44.4561C89.0775 44.7974 89.0508 45.1441 89.0188 45.4961C88.9868 45.8481 88.9495 46.1894 88.9068 46.5201C88.8642 46.8401 88.8215 47.1121 88.7788 47.3361H88.1068L87.0828 44.6001H85.2268V53.6881C85.5042 53.7414 85.7762 53.8054 86.0428 53.8801C86.3202 53.9547 86.5655 54.0454 86.7788 54.1521V54.7601Z" fill="#CBAA76"></path><path d="M155.825 25.5601C155.804 26.0401 155.767 26.5361 155.713 27.0481C155.66 27.5601 155.591 28.0401 155.505 28.4881H154.849L154.113 26.6001H151.121V30.5201H153.073L153.777 29.2881H154.289C154.343 29.8107 154.369 30.3921 154.369 31.0321C154.369 31.6721 154.343 32.2694 154.289 32.8241H153.777L153.073 31.5601H151.121V35.7201H154.241L155.089 33.6881H155.745C155.788 33.8907 155.831 34.1201 155.873 34.3761C155.916 34.6321 155.948 34.8987 155.969 35.1761C156.001 35.4427 156.023 35.7147 156.033 35.9921C156.055 36.2694 156.065 36.5254 156.065 36.7601H147.409V36.1521C147.591 36.0561 147.793 35.9654 148.017 35.8801C148.241 35.7947 148.476 35.7307 148.721 35.6881V26.6321C148.508 26.5894 148.279 26.5307 148.033 26.4561C147.799 26.3707 147.591 26.2747 147.409 26.1681V25.5601H155.825Z" fill="#CBAA76"></path><path d="M139.961 36.7601H135.113V36.1521C135.294 36.0561 135.502 35.9654 135.737 35.8801C135.982 35.7947 136.211 35.7307 136.425 35.6881V26.6321C136.169 26.5894 135.923 26.5254 135.689 26.4401C135.454 26.3547 135.262 26.2641 135.113 26.1681V25.5601H139.961V26.1681C139.801 26.2747 139.619 26.3707 139.417 26.4561C139.225 26.5414 139.027 26.6001 138.825 26.6321V30.5041H143.065V26.6321C142.83 26.5894 142.617 26.5254 142.425 26.4401C142.243 26.3547 142.078 26.2641 141.929 26.1681V25.5601H146.777V26.1681C146.595 26.2854 146.387 26.3814 146.153 26.4561C145.918 26.5307 145.689 26.5894 145.465 26.6321V35.6881C145.71 35.7307 145.945 35.7947 146.169 35.8801C146.403 35.9654 146.606 36.0561 146.777 36.1521V36.7601H141.929V36.1521C142.089 36.0561 142.265 35.9654 142.457 35.8801C142.649 35.7947 142.851 35.7307 143.065 35.6881V31.5441H138.825V35.6881C139.038 35.7307 139.235 35.7894 139.417 35.8641C139.598 35.9387 139.779 36.0347 139.961 36.1521V36.7601Z" fill="#CBAA76"></path><path d="M127.46 36.7601H122.644V36.1521C122.847 36.0455 123.06 35.9495 123.284 35.8641C123.508 35.7788 123.732 35.7201 123.956 35.6881V26.6321C123.743 26.5788 123.519 26.5201 123.284 26.4561C123.049 26.3815 122.836 26.2855 122.644 26.1681V25.5601H127.46V26.1681C127.3 26.2641 127.119 26.3548 126.916 26.4401C126.713 26.5255 126.495 26.5895 126.26 26.6321V32.7121L126.1 33.9601L126.884 32.6481L130.916 27.0161V26.6321C130.415 26.5148 129.993 26.3601 129.652 26.1681V25.5601H134.468V26.1681C134.287 26.2855 134.079 26.3815 133.844 26.4561C133.62 26.5201 133.391 26.5788 133.156 26.6321V35.6881C133.401 35.7308 133.631 35.7948 133.844 35.8801C134.068 35.9548 134.276 36.0455 134.468 36.1521V36.7601H129.652V36.1521C129.801 36.0775 129.977 35.9975 130.18 35.9121C130.393 35.8161 130.617 35.7415 130.852 35.6881V29.6241L131.012 28.3601L130.292 29.6241L126.196 35.3361V35.6881C126.441 35.7415 126.671 35.8108 126.884 35.8961C127.097 35.9815 127.289 36.0668 127.46 36.1521V36.7601ZM128.628 24.9041C128.137 24.9041 127.689 24.8615 127.284 24.7761C126.889 24.6801 126.548 24.5468 126.26 24.3761C125.972 24.1948 125.748 23.9708 125.588 23.7041C125.439 23.4375 125.364 23.1335 125.364 22.7921C125.556 22.6535 125.807 22.5628 126.116 22.5201C126.436 22.4775 126.729 22.4508 126.996 22.4401L127.54 22.7281V23.9761C127.689 24.0508 127.86 24.1041 128.052 24.1361C128.255 24.1575 128.452 24.1681 128.644 24.1681C128.793 24.1681 128.975 24.1575 129.188 24.1361C129.412 24.1148 129.599 24.0775 129.748 24.0241V22.7281L130.292 22.4401C130.484 22.4188 130.735 22.4401 131.044 22.5041C131.353 22.5575 131.625 22.6535 131.86 22.7921C131.86 23.4748 131.572 23.9975 130.996 24.3601C130.42 24.7228 129.631 24.9041 128.628 24.9041Z" fill="#CBAA76"></path><path d="M121.843 36.7601H116.851V36.1521C117.277 35.9174 117.709 35.7627 118.147 35.6881V26.6321C117.933 26.6001 117.709 26.5414 117.475 26.4561C117.24 26.3707 117.032 26.2747 116.851 26.1681V25.5601H121.843V26.1681C121.651 26.2854 121.437 26.3867 121.203 26.4721C120.979 26.5467 120.76 26.6001 120.547 26.6321V35.6881C120.76 35.7307 120.979 35.7894 121.203 35.8641C121.437 35.9387 121.651 36.0347 121.843 36.1521V36.7601Z" fill="#CBAA76"></path><path d="M108.512 26.7921C108.181 26.7387 107.867 26.6534 107.568 26.5361C107.28 26.4187 107.029 26.2961 106.816 26.1681V25.5601H116.048V26.1681C115.888 26.2641 115.691 26.3547 115.456 26.4401C115.232 26.5254 114.992 26.5894 114.736 26.6321V35.6881C114.981 35.7307 115.211 35.7947 115.424 35.8801C115.648 35.9654 115.856 36.0561 116.048 36.1521V36.7601H111.12V36.1521C111.301 36.0561 111.493 35.9707 111.696 35.8961C111.909 35.8107 112.123 35.7414 112.336 35.6881V26.6001H109.728C109.696 28.2214 109.621 29.5761 109.504 30.6641C109.387 31.7414 109.243 32.6321 109.072 33.3361C108.901 34.0401 108.709 34.6001 108.496 35.0161C108.293 35.4214 108.08 35.7734 107.856 36.0721C107.653 36.3494 107.397 36.5681 107.088 36.7281C106.779 36.8774 106.48 36.9521 106.192 36.9521C106.053 36.8987 105.92 36.7921 105.792 36.6321C105.664 36.4614 105.547 36.2694 105.44 36.0561C105.333 35.8427 105.243 35.6187 105.168 35.3841C105.104 35.1494 105.067 34.9307 105.056 34.7281L105.488 34.1201L107.392 34.5841C107.531 34.2854 107.664 33.9281 107.792 33.5121C107.931 33.0854 108.053 32.5627 108.16 31.9441C108.267 31.3254 108.352 30.5947 108.416 29.7521C108.48 28.9094 108.512 27.9227 108.512 26.7921Z" fill="#CBAA76"></path><path d="M96.534 26.6321C96.0327 26.5467 95.5953 26.3921 95.222 26.1681V25.5601H103.814C103.814 25.8054 103.803 26.0774 103.782 26.3761C103.761 26.6747 103.734 26.9734 103.702 27.2721C103.67 27.5707 103.633 27.8587 103.59 28.1361C103.547 28.4134 103.505 28.6641 103.462 28.8881H102.806L101.814 26.6001H98.934V30.2481C99.03 30.2374 99.1473 30.2267 99.286 30.2161C99.4247 30.1947 99.5633 30.1787 99.702 30.1681C99.8513 30.1574 99.9953 30.1521 100.134 30.1521C100.283 30.1414 100.411 30.1361 100.518 30.1361C101.062 30.1361 101.579 30.1947 102.07 30.3121C102.561 30.4294 102.987 30.6214 103.35 30.8881C103.723 31.1441 104.017 31.4801 104.23 31.8961C104.454 32.3121 104.566 32.8134 104.566 33.4001C104.566 33.9654 104.449 34.4614 104.214 34.8881C103.99 35.3147 103.675 35.6721 103.27 35.9601C102.875 36.2374 102.401 36.4507 101.846 36.6001C101.302 36.7387 100.71 36.8081 100.07 36.8081C100.017 36.8081 99.8833 36.8027 99.67 36.7921C99.4567 36.7921 99.2167 36.7867 98.95 36.7761C98.6833 36.7761 98.4167 36.7707 98.15 36.7601C97.8833 36.7601 97.67 36.7601 97.51 36.7601H95.222V36.1521C95.4247 36.0347 95.6327 35.9387 95.846 35.8641C96.07 35.7787 96.2993 35.7201 96.534 35.6881V26.6321ZM99.83 31.1761C99.6593 31.1761 99.494 31.1867 99.334 31.2081C99.174 31.2187 99.0407 31.2401 98.934 31.2721V35.7041C98.9767 35.7147 99.0407 35.7254 99.126 35.7361C99.222 35.7467 99.318 35.7574 99.414 35.7681C99.51 35.7681 99.6007 35.7681 99.686 35.7681C99.782 35.7681 99.8567 35.7681 99.91 35.7681C100.539 35.7681 101.03 35.5654 101.382 35.1601C101.745 34.7547 101.926 34.1841 101.926 33.4481C101.926 32.7441 101.761 32.1894 101.43 31.7841C101.099 31.3787 100.566 31.1761 99.83 31.1761Z" fill="#CBAA76"></path><path d="M94.4208 36.7601H89.4288V36.1521C89.8555 35.9174 90.2875 35.7627 90.7248 35.6881V26.6321C90.5115 26.6001 90.2875 26.5414 90.0528 26.4561C89.8182 26.3707 89.6102 26.2747 89.4288 26.1681V25.5601H94.4208V26.1681C94.2288 26.2854 94.0155 26.3867 93.7808 26.4721C93.5568 26.5467 93.3382 26.6001 93.1248 26.6321V35.6881C93.3382 35.7307 93.5568 35.7894 93.7808 35.8641C94.0155 35.9387 94.2288 36.0347 94.4208 36.1521V36.7601Z" fill="#CBAA76"></path><path d="M80.3309 26.6321C79.8295 26.5467 79.3922 26.3921 79.0189 26.1681V25.5601H87.6109C87.6109 25.8054 87.6002 26.0774 87.5789 26.3761C87.5575 26.6747 87.5309 26.9734 87.4989 27.2721C87.4669 27.5707 87.4295 27.8587 87.3869 28.1361C87.3442 28.4134 87.3015 28.6641 87.2589 28.8881H86.6029L85.6109 26.6001H82.7309V30.2481C82.8269 30.2374 82.9442 30.2267 83.0829 30.2161C83.2215 30.1947 83.3602 30.1787 83.4989 30.1681C83.6482 30.1574 83.7922 30.1521 83.9309 30.1521C84.0802 30.1414 84.2082 30.1361 84.3149 30.1361C84.8589 30.1361 85.3762 30.1947 85.8669 30.3121C86.3575 30.4294 86.7842 30.6214 87.1469 30.8881C87.5202 31.1441 87.8135 31.4801 88.0269 31.8961C88.2509 32.3121 88.3629 32.8134 88.3629 33.4001C88.3629 33.9654 88.2455 34.4614 88.0109 34.8881C87.7869 35.3147 87.4722 35.6721 87.0669 35.9601C86.6722 36.2374 86.1975 36.4507 85.6429 36.6001C85.0989 36.7387 84.5069 36.8081 83.8669 36.8081C83.8135 36.8081 83.6802 36.8027 83.4669 36.7921C83.2535 36.7921 83.0135 36.7867 82.7469 36.7761C82.4802 36.7761 82.2135 36.7707 81.9469 36.7601C81.6802 36.7601 81.4669 36.7601 81.3069 36.7601H79.0189V36.1521C79.2215 36.0347 79.4295 35.9387 79.6429 35.8641C79.8669 35.7787 80.0962 35.7201 80.3309 35.6881V26.6321ZM83.6269 31.1761C83.4562 31.1761 83.2909 31.1867 83.1309 31.2081C82.9709 31.2187 82.8375 31.2401 82.7309 31.2721V35.7041C82.7735 35.7147 82.8375 35.7254 82.9229 35.7361C83.0189 35.7467 83.1149 35.7574 83.2109 35.7681C83.3069 35.7681 83.3975 35.7681 83.4829 35.7681C83.5789 35.7681 83.6535 35.7681 83.7069 35.7681C84.3362 35.7681 84.8269 35.5654 85.1789 35.1601C85.5415 34.7547 85.7229 34.1841 85.7229 33.4481C85.7229 32.7441 85.5575 32.1894 85.2269 31.7841C84.8962 31.3787 84.3629 31.1761 83.6269 31.1761Z" fill="#CBAA76"></path><path d="M180.529 7.56006C180.507 8.04006 180.47 8.53606 180.417 9.04806C180.363 9.56006 180.294 10.0401 180.209 10.4881H179.553L178.817 8.60006H175.825V12.5201H177.777L178.481 11.2881H178.993C179.046 11.8107 179.073 12.3921 179.073 13.0321C179.073 13.6721 179.046 14.2694 178.993 14.8241H178.481L177.777 13.5601H175.825V17.7201H178.945L179.793 15.6881H180.449C180.491 15.8907 180.534 16.1201 180.577 16.3761C180.619 16.6321 180.651 16.8987 180.673 17.1761C180.705 17.4427 180.726 17.7147 180.737 17.9921C180.758 18.2694 180.769 18.5254 180.769 18.7601H172.113V18.1521C172.294 18.0561 172.497 17.9654 172.721 17.8801C172.945 17.7947 173.179 17.7307 173.425 17.6881V8.63206C173.211 8.58939 172.982 8.53073 172.737 8.45606C172.502 8.37073 172.294 8.27473 172.113 8.16806V7.56006H180.529Z" fill="#CBAA76"></path><path d="M166.817 7.56006H171.105V8.16806C170.924 8.28539 170.716 8.38673 170.481 8.47206C170.247 8.54673 170.033 8.60006 169.841 8.63206L166.801 12.4881C167.047 12.8294 167.335 13.2187 167.665 13.6561C167.996 14.0827 168.348 14.5307 168.721 15.0001C169.095 15.4587 169.479 15.9281 169.873 16.4081C170.268 16.8774 170.652 17.3254 171.025 17.7521L171.793 18.2161V18.7601H169.009L168.369 18.3121C168.113 17.9921 167.841 17.6401 167.553 17.2561C167.276 16.8614 166.999 16.4561 166.721 16.0401C166.444 15.6134 166.172 15.1867 165.905 14.7601C165.639 14.3334 165.388 13.9174 165.153 13.5121H164.465V17.6881C164.7 17.7307 164.913 17.7947 165.105 17.8801C165.297 17.9654 165.463 18.0561 165.601 18.1521V18.7601H160.753V18.1521C160.967 18.0454 161.185 17.9547 161.409 17.8801C161.633 17.7947 161.852 17.7307 162.065 17.6881V8.63206C161.82 8.60006 161.58 8.54139 161.345 8.45606C161.121 8.37073 160.924 8.27473 160.753 8.16806V7.56006H165.601V8.16806C165.463 8.25339 165.292 8.33873 165.089 8.42406C164.897 8.50939 164.689 8.57873 164.465 8.63206V12.6961L165.409 12.4721L167.985 8.63206C167.772 8.58939 167.559 8.52539 167.345 8.44006C167.143 8.34406 166.967 8.25339 166.817 8.16806V7.56006Z" fill="#CBAA76"></path><path d="M150.519 18.7601V18.1521C150.711 18.0454 150.919 17.9494 151.143 17.8641C151.378 17.7787 151.607 17.7201 151.831 17.6881V8.63206C151.618 8.58939 151.394 8.53073 151.159 8.45606C150.924 8.38139 150.711 8.28539 150.519 8.16806V7.56006H155.703V8.16806C155.522 8.27473 155.298 8.37073 155.031 8.45606C154.764 8.53073 154.498 8.58939 154.231 8.63206V12.0561C154.423 12.0241 154.663 11.9974 154.951 11.9761C155.25 11.9547 155.506 11.9441 155.719 11.9441C156.327 11.9441 156.892 12.0027 157.415 12.1201C157.938 12.2374 158.391 12.4294 158.775 12.6961C159.159 12.9521 159.458 13.2934 159.671 13.7201C159.895 14.1361 160.007 14.6427 160.007 15.2401C160.007 15.8481 159.89 16.3761 159.655 16.8241C159.431 17.2721 159.111 17.6454 158.695 17.9441C158.279 18.2321 157.778 18.4507 157.191 18.6001C156.604 18.7387 155.954 18.8081 155.239 18.8081C155.186 18.8081 155.068 18.8027 154.887 18.7921C154.706 18.7921 154.503 18.7867 154.279 18.7761C154.055 18.7761 153.82 18.7707 153.575 18.7601C153.34 18.7601 153.143 18.7601 152.983 18.7601H150.519ZM155.127 12.9841C154.754 12.9841 154.455 13.0161 154.231 13.0801V17.7041C154.327 17.7254 154.476 17.7414 154.679 17.7521C154.882 17.7627 155.042 17.7681 155.159 17.7681C155.447 17.7681 155.724 17.7254 155.991 17.6401C156.258 17.5441 156.492 17.4001 156.695 17.2081C156.898 17.0054 157.058 16.7441 157.175 16.4241C157.303 16.1041 157.367 15.7094 157.367 15.2401C157.367 14.4721 157.159 13.9067 156.743 13.5441C156.338 13.1707 155.799 12.9841 155.127 12.9841Z" fill="#CBAA76"></path><path d="M148.401 15.4002H149.057C149.1 15.5708 149.137 15.7788 149.169 16.0242C149.212 16.2588 149.244 16.5148 149.265 16.7922C149.297 17.0588 149.319 17.3255 149.329 17.5922C149.34 17.8588 149.345 18.0988 149.345 18.3122C148.972 18.5468 148.503 18.7122 147.937 18.8082C147.383 18.9042 146.812 18.9522 146.225 18.9522C145.34 18.9522 144.535 18.8455 143.809 18.6322C143.095 18.4082 142.481 18.0615 141.969 17.5922C141.468 17.1122 141.079 16.5095 140.801 15.7842C140.524 15.0482 140.385 14.1682 140.385 13.1442C140.385 12.1308 140.535 11.2615 140.833 10.5362C141.143 9.80016 141.553 9.1975 142.065 8.72816C142.577 8.25883 143.169 7.9175 143.841 7.70416C144.524 7.48016 145.239 7.36816 145.985 7.36816C146.689 7.36816 147.324 7.4215 147.889 7.52816C148.465 7.62416 148.935 7.7575 149.297 7.92816C149.297 8.09883 149.287 8.3175 149.265 8.58416C149.255 8.85083 149.228 9.1335 149.185 9.43216C149.153 9.72016 149.111 10.0082 149.057 10.2962C149.015 10.5735 148.972 10.8082 148.929 11.0002H148.257L147.377 8.58416C147.281 8.53083 147.127 8.48816 146.913 8.45616C146.7 8.42416 146.481 8.40816 146.257 8.40816C145.82 8.40816 145.409 8.49883 145.025 8.68016C144.641 8.85083 144.3 9.12816 144.001 9.51216C143.703 9.89616 143.468 10.3922 143.297 11.0002C143.127 11.5975 143.041 12.3175 143.041 13.1602C143.041 14.6855 143.345 15.8588 143.953 16.6802C144.561 17.5015 145.388 17.9122 146.433 17.9122C146.732 17.9122 146.983 17.8908 147.185 17.8482C147.399 17.7948 147.543 17.7255 147.617 17.6402L148.401 15.4002Z" fill="#CBAA76"></path><path d="M132.632 18.7601H127.784V18.1521C127.966 18.0561 128.174 17.9654 128.408 17.8801C128.654 17.7947 128.883 17.7307 129.096 17.6881V8.63206C128.84 8.58939 128.595 8.52539 128.36 8.44006C128.126 8.35473 127.934 8.26406 127.784 8.16806V7.56006H132.632V8.16806C132.472 8.27473 132.291 8.37073 132.088 8.45606C131.896 8.54139 131.699 8.60006 131.496 8.63206V12.5041H135.736V8.63206C135.502 8.58939 135.288 8.52539 135.096 8.44006C134.915 8.35473 134.75 8.26406 134.6 8.16806V7.56006H139.448V8.16806C139.267 8.28539 139.059 8.38139 138.824 8.45606C138.59 8.53073 138.36 8.58939 138.136 8.63206V17.6881C138.382 17.7307 138.616 17.7947 138.84 17.8801C139.075 17.9654 139.278 18.0561 139.448 18.1521V18.7601H134.6V18.1521C134.76 18.0561 134.936 17.9654 135.128 17.8801C135.32 17.7947 135.523 17.7307 135.736 17.6881V13.5441H131.496V17.6881C131.71 17.7307 131.907 17.7894 132.088 17.8641C132.27 17.9387 132.451 18.0347 132.632 18.1521V18.7601Z" fill="#CBAA76"></path><path d="M121.703 6.0721C121.703 5.73076 121.805 5.47476 122.007 5.3041C122.221 5.13343 122.514 5.0481 122.887 5.0481C123.261 5.0481 123.549 5.13343 123.751 5.3041C123.965 5.47476 124.071 5.73076 124.071 6.0721C124.071 6.37076 123.965 6.60543 123.751 6.7761C123.549 6.9361 123.261 7.0161 122.887 7.0161C122.514 7.0161 122.221 6.9361 122.007 6.7761C121.805 6.60543 121.703 6.37076 121.703 6.0721ZM124.887 6.0721C124.887 5.73076 124.994 5.47476 125.207 5.3041C125.421 5.13343 125.714 5.0481 126.087 5.0481C126.866 5.0481 127.255 5.38943 127.255 6.0721C127.255 6.37076 127.154 6.60543 126.951 6.7761C126.749 6.9361 126.461 7.0161 126.087 7.0161C125.714 7.0161 125.421 6.9361 125.207 6.7761C124.994 6.60543 124.887 6.37076 124.887 6.0721ZM126.983 18.7601H121.991V18.1521C122.418 17.9174 122.85 17.7628 123.287 17.6881V8.6321C123.074 8.6001 122.85 8.54143 122.615 8.4561C122.381 8.37076 122.173 8.27476 121.991 8.1681V7.5601H126.983V8.1681C126.791 8.28543 126.578 8.38676 126.343 8.4721C126.119 8.54676 125.901 8.6001 125.687 8.6321V17.6881C125.901 17.7308 126.119 17.7894 126.343 17.8641C126.578 17.9388 126.791 18.0348 126.983 18.1521V18.7601Z" fill="#CBAA76"></path><path d="M113.807 18.7602H109.855V18.1522C110.026 18.0455 110.207 17.9548 110.399 17.8802C110.602 17.7948 110.799 17.7308 110.991 17.6882L115.119 7.36816H116.303L120.319 17.6882C120.532 17.7308 120.746 17.7948 120.959 17.8802C121.172 17.9548 121.359 18.0455 121.519 18.1522V18.7602H116.511V18.1522C116.714 18.0562 116.932 17.9655 117.167 17.8802C117.402 17.7948 117.626 17.7308 117.839 17.6882L116.911 15.1442H113.359L112.415 17.6882C112.906 17.7522 113.37 17.9068 113.807 18.1522V18.7602ZM113.743 14.1042H116.575L115.535 11.0482L115.231 9.67216H115.199L114.847 11.0802L113.743 14.1042Z" fill="#CBAA76"></path><path d="M105.028 17.6881C105.316 17.7308 105.598 17.7948 105.876 17.8801C106.164 17.9548 106.42 18.0455 106.644 18.1521V18.7601H101.316V18.1521C101.518 18.0348 101.732 17.9388 101.956 17.8641C102.19 17.7895 102.414 17.7308 102.628 17.6881V8.63213C102.382 8.58946 102.148 8.5308 101.924 8.45613C101.7 8.3708 101.497 8.2748 101.316 8.16813V7.56013H103.332C103.758 7.56013 104.244 7.53879 104.788 7.49613C105.342 7.45346 105.849 7.43213 106.308 7.43213C106.873 7.43213 107.422 7.4908 107.956 7.60813C108.5 7.7148 108.98 7.90146 109.396 8.16813C109.822 8.4348 110.164 8.79213 110.42 9.24013C110.676 9.67746 110.804 10.2268 110.804 10.8881C110.804 11.5175 110.676 12.0615 110.42 12.5201C110.174 12.9788 109.844 13.3575 109.428 13.6561C109.012 13.9548 108.532 14.1788 107.988 14.3281C107.444 14.4668 106.884 14.5361 106.308 14.5361C106.254 14.5361 106.169 14.5361 106.052 14.5361C105.934 14.5361 105.806 14.5361 105.668 14.5361C105.54 14.5255 105.412 14.5201 105.284 14.5201C105.166 14.5095 105.081 14.4988 105.028 14.4881V17.6881ZM105.892 8.47213C105.678 8.47213 105.508 8.4828 105.38 8.50413C105.262 8.51479 105.145 8.53613 105.028 8.56813V13.4321C105.124 13.4641 105.268 13.4855 105.46 13.4961C105.652 13.4961 105.806 13.4961 105.924 13.4961C106.212 13.4961 106.489 13.4481 106.756 13.3521C107.022 13.2561 107.257 13.1068 107.46 12.9041C107.673 12.7015 107.844 12.4401 107.972 12.1201C108.1 11.8001 108.164 11.4161 108.164 10.9681C108.164 10.1148 107.956 9.48546 107.54 9.08013C107.124 8.6748 106.574 8.47213 105.892 8.47213Z" fill="#CBAA76"></path><path d="M96.0204 7.56006H100.308V8.16806C100.127 8.28539 99.919 8.38673 99.6844 8.47206C99.4497 8.54673 99.2364 8.60006 99.0444 8.63206L96.0044 12.4881C96.2497 12.8294 96.5377 13.2187 96.8684 13.6561C97.199 14.0827 97.551 14.5307 97.9244 15.0001C98.2977 15.4587 98.6817 15.9281 99.0764 16.4081C99.471 16.8774 99.855 17.3254 100.228 17.7521L100.996 18.2161V18.7601H98.2124L97.5724 18.3121C97.3164 17.9921 97.0444 17.6401 96.7564 17.2561C96.479 16.8614 96.2017 16.4561 95.9244 16.0401C95.647 15.6134 95.375 15.1867 95.1084 14.7601C94.8417 14.3334 94.591 13.9174 94.3564 13.5121H93.6684V17.6881C93.903 17.7307 94.1164 17.7947 94.3084 17.8801C94.5004 17.9654 94.6657 18.0561 94.8044 18.1521V18.7601H89.9564V18.1521C90.1697 18.0454 90.3884 17.9547 90.6124 17.8801C90.8364 17.7947 91.055 17.7307 91.2684 17.6881V8.63206C91.023 8.60006 90.783 8.54139 90.5484 8.45606C90.3244 8.37073 90.127 8.27473 89.9564 8.16806V7.56006H94.8044V8.16806C94.6657 8.25339 94.495 8.33873 94.2924 8.42406C94.1004 8.50939 93.8924 8.57873 93.6684 8.63206V12.6961L94.6124 12.4721L97.1884 8.63206C96.975 8.58939 96.7617 8.52539 96.5484 8.44006C96.3457 8.34406 96.1697 8.25339 96.0204 8.16806V7.56006Z" fill="#CBAA76"></path><path d="M87.0029 8.63206C86.7469 8.57873 86.5229 8.51473 86.3309 8.44006C86.1389 8.35473 85.9522 8.26406 85.7709 8.16806V7.56006H89.6429V8.16806C89.5255 8.25339 89.3655 8.33873 89.1629 8.42406C88.9709 8.49873 88.7522 8.56806 88.5069 8.63206L85.4509 15.5441C84.9389 16.7174 84.4055 17.5921 83.8509 18.1681C83.2962 18.7334 82.7042 18.9574 82.0749 18.8401C81.9895 18.7547 81.8989 18.6267 81.8029 18.4561C81.7175 18.2747 81.6322 18.0881 81.5469 17.8961C81.4722 17.6934 81.4082 17.5014 81.3549 17.3201C81.3015 17.1281 81.2695 16.9681 81.2589 16.8401L81.7069 16.2001L83.6109 16.7921C83.6962 16.6961 83.7762 16.5787 83.8509 16.4401C83.9255 16.3014 83.9949 16.1467 84.0589 15.9761L79.8029 8.63206C79.6002 8.57873 79.4029 8.51473 79.2109 8.44006C79.0295 8.35473 78.8589 8.26406 78.6989 8.16806V7.56006H83.6909V8.16806C83.3709 8.36006 82.9655 8.51473 82.4749 8.63206L84.7309 12.9681L85.0669 13.9921H85.0989L85.4189 12.9361L87.0029 8.63206Z" fill="#CBAA76"></path></g><defs><clipPath id="clip0_197_539"><rect width="189" height="60" fill="white"></rect></clipPath></defs></svg> 